HIERARCHY
ROOT Hips
{
	OFFSET 0.000000 88.474243 0.000000
	CHANNELS 6 Xposition Yposition Zposition Zrotation Yrotation Xrotation 
	JOINT Hips_Spine
	{
		OFFSET 0.000000 0.000000 0.000000
		CHANNELS 3 Zrotation Yrotation Xrotation
		JOINT Spine
		{
			OFFSET 0.005100 8.711998 -0.691000
			CHANNELS 3 Zrotation Yrotation Xrotation
			JOINT Spine1
			{
				OFFSET -0.009200 8.660301 -1.275000
				CHANNELS 3 Zrotation Yrotation Xrotation
				JOINT Spine2
				{
					OFFSET 0.006300 9.852501 -1.857000
					CHANNELS 3 Zrotation Yrotation Xrotation
					JOINT Spine2_Neck
					{
						OFFSET 0.000000 0.000000 0.000000
						CHANNELS 3 Zrotation Yrotation Xrotation
						JOINT Neck
						{
							OFFSET 0.016300 11.420799 -0.263300
							CHANNELS 3 Zrotation Yrotation Xrotation
							End Site #name: Head
							{
								OFFSET -0.019200 9.262405 2.362500
							}
						}
					}
					JOINT Spine2_LeftShoulder
					{
						OFFSET 0.000000 0.000000 0.000000
						CHANNELS 3 Zrotation Yrotation Xrotation
						JOINT LeftShoulder
						{
							OFFSET 5.616900 6.732201 -0.345700
							CHANNELS 3 Zrotation Yrotation Xrotation
							JOINT LeftArm
							{
								OFFSET 10.664888 -0.183372 -2.440700
								CHANNELS 3 Zrotation Yrotation Xrotation
								JOINT LeftForeArm
								{
									OFFSET 27.459126 0.000000 0.000000
									CHANNELS 3 Zrotation Yrotation Xrotation
									End Site #name: LeftHand
									{
										OFFSET 21.306858 0.000000 0.000000
									}
								}
							}
						}
					}
					JOINT Spine2_RightShoulder
					{
						OFFSET 0.000000 0.000000 0.000000
						CHANNELS 3 Zrotation Yrotation Xrotation
						JOINT RightShoulder
						{
							OFFSET -5.580300 6.737503 -0.344400
							CHANNELS 3 Zrotation Yrotation Xrotation
							JOINT RightArm
							{
								OFFSET -10.679335 -0.188484 -2.383900
								CHANNELS 3 Zrotation Yrotation Xrotation
								JOINT RightForeArm
								{
									OFFSET -27.503529 0.000000 0.000000
									CHANNELS 3 Zrotation Yrotation Xrotation
									End Site #name: RightHand
									{
										OFFSET -21.306808 0.000000 0.000000
									}
								}
							}
						}
					}
				}
			}
		}
	}
	JOINT Hips_LeftUpLeg
	{
		OFFSET 0.000000 0.000000 0.000000
		CHANNELS 3 Zrotation Yrotation Xrotation
		JOINT LeftUpLeg
		{
			OFFSET 6.857700 -6.739601 0.312100
			CHANNELS 3 Zrotation Yrotation Xrotation
			JOINT LeftLeg
			{
				OFFSET -0.367590 -34.731552 -4.572400
				CHANNELS 3 Zrotation Yrotation Xrotation
				End Site #name: LeftFoot
				{
					OFFSET 0.367590 -34.656704 -6.067400
				}
			}
		}
	}
	JOINT Hips_RightUpLeg
	{
		OFFSET 0.000000 0.000000 0.000000
		CHANNELS 3 Zrotation Yrotation Xrotation
		JOINT RightUpLeg
		{
			OFFSET -6.876100 -6.733299 0.301000
			CHANNELS 3 Zrotation Yrotation Xrotation
			JOINT RightLeg
			{
				OFFSET 0.347353 -34.795158 -4.515900
				CHANNELS 3 Zrotation Yrotation Xrotation
				End Site #name: RightFoot
				{
					OFFSET -0.347353 -34.589367 -6.070300
				}
			}
		}
	}
}
MOTION
Frames: 11
Frame Time: 0.041667
0.199295 0.016173 0.008150 0.090385 13.692315 -7.430240 0.000000 0.000000 0.000000 -0.690425 -1.304502 1.685903 -0.311769 -0.995101 1.657157 0.000000 0.000000 0.000000 -0.066049 -0.775998 0.154529 1.870637 -0.344871 -2.865250 0.503971 -1.318424 -0.153931 -16.408707 -6.446195 1.631184 -48.856161 -1.535803 24.823134 0.815398 -20.649663 2.958112 -0.330529 -0.568601 1.240194 16.225633 10.196185 4.962538 56.621291 3.238679 3.206425 0.022076 43.746081 0.886942 0.000000 0.000000 0.000000 -5.933267 11.348834 -5.724846 2.626998 5.767192 22.899983 0.000000 0.000000 0.000000 -1.178052 -1.482400 -5.414323 1.670836 -2.265812 -0.972414 
0.706318 -0.062014 0.135461 1.515319 16.287232 -8.643284 0.000000 0.000000 0.000000 -1.935561 -0.722691 0.476310 0.215483 -0.631537 1.005438 0.000000 0.000000 0.000000 -0.310519 -0.669826 -0.453630 2.382812 -1.336193 -2.469421 -0.019840 -0.853243 -0.654641 -20.870548 -2.531357 -0.134354 -47.129858 -0.380701 25.363003 -0.537318 -21.018438 0.994769 -0.226315 -0.498165 0.550730 17.483063 7.747747 3.254671 59.047333 5.722026 8.933142 0.029970 37.582202 -0.271015 0.000000 0.000000 -0.000000 -8.459845 11.066563 -3.799456 0.835793 6.261608 22.060629 0.000000 0.000000 0.000000 -4.837402 -1.960559 -3.984867 1.318058 -3.782733 0.661904 
1.078594 -0.127266 0.169615 2.668618 15.991671 -8.832143 0.000000 0.000000 -0.000000 -2.510936 -0.697528 0.660826 0.335832 -0.325799 0.345705 0.000000 0.000000 0.000000 0.174364 -0.755764 -0.963072 2.647073 -1.116157 -3.946350 -0.103104 -0.708895 -1.058363 -24.592366 -1.775929 -0.856284 -46.984434 6.579093 20.216807 -0.755114 -19.922769 1.082651 0.068905 -0.338614 0.159696 17.109995 7.830489 2.551992 58.813432 7.039556 10.260881 0.190503 32.836123 -0.387420 0.000000 0.000000 -0.000000 -10.298665 10.797529 -3.284403 0.590102 6.595473 21.867612 0.000000 0.000000 0.000000 -7.159483 -2.850366 -5.344260 1.106407 -5.598077 4.698829 
1.466001 -0.206542 0.154850 3.143482 14.792968 -8.647381 0.000000 0.000000 -0.000000 -3.031743 -0.557522 1.147611 0.529579 -0.432767 0.270638 0.000000 0.000000 0.000000 0.507955 -0.835984 -0.974728 2.536502 -1.152249 -3.877069 0.096622 -0.769730 -1.096416 -25.984025 -1.636231 -1.381806 -47.515130 6.902233 18.251229 -0.677261 -19.905071 1.043004 0.325678 -0.358247 0.176315 16.568354 8.530125 2.642922 59.226820 9.940306 9.184477 0.295332 34.197465 -0.411135 0.000000 0.000000 -0.000000 -11.506101 10.770717 -3.282208 0.384663 6.433002 21.570424 0.000000 0.000000 0.000000 -8.370783 -3.427064 -7.330009 0.693745 -5.786665 8.964216 
1.902592 -0.275161 0.136059 3.280439 13.828245 -8.390274 0.000000 0.000000 -0.000000 -3.508603 -0.401818 1.478629 0.536422 -0.538285 0.492562 0.000000 0.000000 0.000000 0.533376 -0.975179 -0.935954 2.323325 -1.294086 -3.288805 0.136579 -0.859036 -0.978219 -27.752765 -1.118500 -1.674350 -46.700660 6.112590 20.856538 -0.586889 -17.530700 1.439541 0.374129 -0.481749 0.287360 16.158001 8.761504 2.532617 59.931584 11.706810 7.785271 0.381924 36.145693 -0.446658 0.000000 0.000000 -0.000000 -12.345080 10.606830 -3.656115 0.132864 5.922600 21.833334 0.000000 0.000000 0.000000 -9.129801 -3.793905 -8.997378 0.844016 -4.561286 12.143853 
2.364956 -0.322473 0.118788 3.196803 13.203926 -8.281384 0.000000 0.000000 -0.000000 -4.244800 -0.398417 1.566619 0.405342 -0.594671 0.719191 0.000000 0.000000 0.000000 0.365285 -1.110882 -0.807758 2.107068 -1.420020 -2.786621 0.079495 -0.971961 -0.847631 -29.186293 -0.612166 -1.787701 -45.738869 4.683922 23.041423 -0.476896 -14.059009 2.161033 0.312075 -0.637216 0.402712 15.881099 8.516980 2.370030 60.383921 12.394737 6.632583 0.462146 36.746958 -0.465568 0.000000 0.000000 -0.000000 -12.858240 10.393246 -4.038444 -0.150231 5.199989 22.278850 0.000000 0.000000 0.000000 -9.516702 -3.822524 -9.846879 1.797694 -1.721527 13.851908 
2.833773 -0.357507 0.105706 2.987675 12.892938 -8.264047 0.000000 0.000000 -0.000000 -4.735910 -0.417467 1.616357 0.284503 -0.636956 0.891917 0.000000 0.000000 0.000000 0.174602 -1.195438 -0.653113 1.975605 -1.482910 -2.577447 -0.016961 -1.020124 -0.719548 -30.098689 -0.263010 -1.801532 -44.879122 3.472051 24.387761 -0.431747 -10.500287 2.631783 0.167659 -0.723092 0.500588 15.836346 8.177739 2.268978 60.754366 12.725374 5.720391 0.526896 36.879563 -0.437531 0.000000 0.000000 -0.000000 -13.186444 10.288767 -4.404244 -0.453313 4.338550 22.834808 0.000000 0.000000 0.000000 -9.718597 -3.749389 -10.202409 3.134872 1.623066 14.935340 
3.284763 -0.386818 0.105356 2.759312 12.856380 -8.267144 0.000000 0.000000 -0.000000 -5.130883 -0.365187 1.692213 0.187211 -0.635161 1.007958 0.000000 0.000000 0.000000 0.024669 -1.214648 -0.553775 1.838394 -1.589876 -2.482705 -0.115829 -1.020932 -0.648473 -30.729100 -0.063916 -1.807510 -44.149062 2.428044 25.181798 -0.399595 -7.843116 2.668680 0.033954 -0.744249 0.553582 15.767904 8.111409 2.186695 61.039756 12.684520 4.793455 0.598045 36.733293 -0.406237 0.000000 0.000000 -0.000000 -13.449820 10.251162 -4.740645 -0.858053 3.307957 23.451527 0.000000 0.000000 0.000000 -9.864174 -3.720513 -10.279775 4.300377 4.431328 15.614891 
3.689668 -0.414706 0.117788 2.538348 13.051906 -8.232889 0.000000 0.000000 -0.000000 -5.543703 -0.282160 1.867087 0.097368 -0.592750 1.067628 0.000000 0.000000 0.000000 -0.091526 -1.180949 -0.451032 1.709283 -1.641334 -2.426619 -0.195564 -1.001264 -0.602892 -31.103470 0.093933 -1.840515 -43.810941 1.595612 25.716239 -0.378687 -6.053928 2.518323 -0.089599 -0.719347 0.588929 15.566203 8.221150 2.146873 61.203970 12.359519 3.744490 0.667422 35.744348 -0.363999 0.000000 0.000000 -0.000000 -13.653768 10.251315 -5.097565 -1.003512 2.573233 24.152875 0.000000 0.000000 0.000000 -9.996131 -3.794130 -10.292561 4.751481 6.087813 16.068534 
4.040449 -0.441512 0.139225 2.349955 13.312756 -8.156409 0.000000 0.000000 -0.000000 -6.058783 -0.191654 2.137704 -0.004374 -0.512280 1.095439 0.000000 0.000000 0.000000 -0.203420 -1.098468 -0.357911 1.605205 -1.686831 -2.387479 -0.274075 -0.954507 -0.555845 -31.247801 0.186625 -1.867549 -43.772378 0.826707 25.991477 -0.368430 -5.125033 2.384353 -0.213294 -0.632946 0.644034 15.364226 8.351830 2.105947 61.371362 11.727880 2.834005 0.712896 34.372956 -0.357665 0.000000 0.000000 -0.000000 -13.781484 10.188761 -5.463488 -0.985245 2.268789 24.761772 0.000000 0.000000 0.000000 -10.113291 -4.001085 -10.325463 4.885450 7.045790 16.384175 
4.326879 -0.462896 0.166699 2.192904 13.560765 -8.046187 0.000000 0.000000 -0.000000 -6.584665 -0.090838 2.449218 -0.125676 -0.408757 1.102167 0.000000 0.000000 0.000000 -0.329400 -0.985601 -0.279144 1.523814 -1.771141 -2.321075 -0.361907 -0.889663 -0.512968 -31.170764 0.273399 -1.878445 -44.064965 -0.008235 26.073773 -0.338548 -4.887982 2.350170 -0.348186 -0.506512 0.704694 15.226264 8.492878 2.073533 61.661071 11.326634 2.539326 0.723520 32.824568 -0.358437 0.000000 0.000000 -0.000000 -13.861859 10.090077 -5.770002 -0.833910 2.314590 25.162254 0.000000 0.000000 0.000000 -10.191994 -4.244913 -10.365308 4.877205 7.702173 16.476744 
